# xmcd
#
# Track frame offsets:
#	183
#	15903
#	33735
#	49328
#	62635
#	81578
#	95853
#	111400
#	129895
#	148663
#	165203
#	179900
#	198260
#	213945
#	229795
#
# Disc length: 3251 seconds
# Revision: 1
# Processed by: cddbd v1.5.2PL0 Copyright (c) Steve Scherf et al.
# Submitted via: dBpowerAMP V12.0
#
DISCID=d60cb10f
DTITLE=Juice Newton - Country Classics
DYEAR=1997
DGENRE=
TTITLE0=It's a Heartache
TTITLE1=Let's Keep It That Way
TTITLE2=Any Way You Want Me
TTITLE3=Sunshine
TTITLE4=Angel of the Morning
TTITLE5=All I Have to Do Is Dream
TTITLE6=Queen of Hearts
TTITLE7=The Sweetest Thing (I've Ever Known)
TTITLE8=Heart of the Night
TTITLE9=I'm Gonna Be Strong
TTITLE10=Love's Been a Little Bit Hard on Me
TTITLE11=Break It to Me Gently
TTITLE12=Come to Me (With Silver Spur)
TTITLE13=Love Like Yours
TTITLE14=Hey Baby
EXTD=
EXTT0=
EXTT1=
EXTT2=
EXTT3=
EXTT4=
EXTT5=
EXTT6=
EXTT7=
EXTT8=
EXTT9=
EXTT10=
EXTT11=
EXTT12=
EXTT13=
EXTT14=
PLAYORDER=
